<svg xmlns="http://www.w3.org/2000/svg" width="50" height="50" fill="none" viewBox="0 0 50 50"><path fill="#0C213A" d="M24.9998 4.16675C13.5207 4.16675 4.1665 13.5209 4.1665 25.0001C4.1665 36.4793 13.5207 45.8334 24.9998 45.8334C36.479 45.8334 45.8332 36.4793 45.8332 25.0001C45.8332 13.5209 36.479 4.16675 24.9998 4.16675ZM31.9998 29.7917C32.604 30.3959 32.604 31.3959 31.9998 32.0001C31.6873 32.3126 31.2915 32.4584 30.8957 32.4584C30.4998 32.4584 30.104 32.3126 29.7915 32.0001L24.9998 27.2084L20.2082 32.0001C19.8957 32.3126 19.4998 32.4584 19.104 32.4584C18.7082 32.4584 18.3123 32.3126 17.9998 32.0001C17.3957 31.3959 17.3957 30.3959 17.9998 29.7917L22.7915 25.0001L17.9998 20.2084C17.3957 19.6042 17.3957 18.6042 17.9998 18.0001C18.604 17.3959 19.604 17.3959 20.2082 18.0001L24.9998 22.7917L29.7915 18.0001C30.3957 17.3959 31.3957 17.3959 31.9998 18.0001C32.604 18.6042 32.604 19.6042 31.9998 20.2084L27.2082 25.0001L31.9998 29.7917Z"/></svg>